/* XPM */
static char *_____________[] = {
/* columns rows colors chars-per-pixel */
"16 16 143 2",
"   c #222222",
".  c #2B2A25",
"X  c #2B2B27",
"o  c #292929",
"O  c #2E2E2B",
"+  c #2D2D2C",
"@  c #32322C",
"#  c #36352C",
"$  c #38372D",
"%  c #3F3D2E",
"&  c #323231",
"*  c #343430",
"=  c #3A3935",
"-  c #3F3E36",
";  c #3A3A3A",
":  c #3B3B3B",
">  c #3E3E3E",
",  c #5F5713",
"<  c #5C561C",
"1  c #655D15",
"2  c #625A19",
"3  c #72680C",
"4  c #766D1A",
"5  c #736A1F",
"6  c #434021",
"7  c #444227",
"8  c #4C4827",
"9  c #42402E",
"0  c #56522C",
"q  c #59552F",
"w  c #464430",
"e  c #4C4932",
"r  c #41413F",
"t  c #46453E",
"y  c #49473D",
"u  c #545136",
"i  c #575435",
"p  c #5B5734",
"a  c #57543E",
"s  c #615B25",
"d  c #635F33",
"f  c #645F31",
"g  c #615D3A",
"h  c #686124",
"j  c #686226",
"k  c #6F682C",
"l  c #726B28",
"z  c #7B7221",
"x  c #78712D",
"c  c #696435",
"v  c #756F33",
"b  c #7E783E",
"n  c #424240",
"m  c #454440",
"M  c #484848",
"N  c #4A4A48",
"B  c #4B4B4B",
"V  c #4D4C49",
"C  c #4C4C4C",
"Z  c #4D4D4D",
"A  c #4F4F4F",
"S  c #525147",
"D  c #5F5D47",
"F  c #53524A",
"G  c #545348",
"H  c #555348",
"J  c #585648",
"K  c #525251",
"L  c #565655",
"P  c #696645",
"I  c #777243",
"U  c #777346",
"Y  c #7A7549",
"T  c #6A6750",
"R  c #7A7865",
"E  c #857D30",
"W  c #807A46",
"Q  c #9F910D",
"!  c #8D821B",
"~  c #918513",
"^  c #998C12",
"/  c #998C15",
"(  c #978B19",
")  c #9E9012",
"_  c #A39406",
"`  c #A5950B",
"'  c #A3940C",
"]  c #A3940F",
"[  c #AD9D0A",
"{  c #AC9C0D",
"}  c #B09F06",
"|  c #B6A50A",
" . c #B0A00C",
".. c #B2A319",
"X. c #B5A619",
"o. c #B6A718",
"O. c #B9A919",
"+. c #B8A91B",
"@. c #BEAE18",
"#. c #92882E",
"$. c #9E9221",
"%. c #C8B509",
"&. c #CAB708",
"*. c #D1BD04",
"=. c #D0BC0A",
"-. c #D0BC0D",
";. c #CEBB10",
":. c #C1B118",
">. c #C4B31A",
",. c #C1B11C",
"<. c #CCBA18",
"1. c #D4C007",
"2. c #DBC604",
"3. c #DEC905",
"4. c #D9C50C",
"5. c #DEC90C",
"6. c #D4C110",
"7. c #D6C312",
"8. c #E6CF02",
"9. c #E2CC05",
"0. c #E5CF05",
"q. c #E1CC0A",
"w. c #E6D003",
"e. c #E9D303",
"r. c #EAD302",
"t. c #EED700",
"y. c #EDD602",
"u. c #ECD603",
"i. c #EED703",
"p. c #EFD802",
"a. c #F1D900",
"s. c #F0D901",
"d. c #F2DB00",
"f. c #F2DA01",
"g. c #F3DB01",
"h. c #F4DC00",
"j. c #F5DC00",
"k. c #F4DD00",
"l. c #F5DD00",
"z. c #F4DE00",
"x. c #F5DE00",
"c. c #8C864D",
"v. c None",
/* pixels */
"v.v.v.v.v.x.j.j.x.j.j.v.v.v.v.v.",
"v.v.v.u.6.5.p.j.j.x.j.d.x.v.v.v.",
"v.v.j.u.X.Y R c.l Q w.d.j.x.v.v.",
"v.j.j.f.-.<.7.q.>.U c *.x.j.x.v.",
"v.j.j.x.j.x.x.j.d.4.P x r.x.j.v.",
"x.j.x.j.p.` q 7 8 j i 9 &.j.x.x.",
"j.x.j.j.>.G p ..X.l = X 3 r.j.x.",
"x.j.x.j. .% V i c 7 : : t O.x.j.",
"x.j.j.,.J - I k c D +   . ' d.j.",
"j.x.j.) * 0 ^ ] } %.z n t / j.j.",
"x.x.| 6 # G M r M r K A V J w.j.",
"v.d.b M $.9.[ ! #.~ { h @ $ 3.v.",
"v.x.1 o g @.w.p.p.w.+.p C Y r.v.",
"v.v.*.E G O y T e F L @ 2 -.v.v.",
"v.v.v.f.2._ 4 v < , ( 1.p.v.v.v.",
"v.v.v.v.v.j.j.x.j.d.x.v.v.v.v.v."
};
