/* XPM */
static char *_____________[] = {
/* columns rows colors chars-per-pixel */
"64 64 256 2",
"   c #161516",
".  c #191616",
"X  c #1C1916",
"o  c #191719",
"O  c #1C1B1B",
"+  c #171618",
"@  c #221D16",
"#  c #211E1B",
"$  c #25211C",
"%  c #2A251D",
"&  c #2E291C",
"*  c #282517",
"=  c #332D16",
"-  c #322C1C",
";  c #32321C",
":  c #3A331C",
">  c #3B3416",
",  c #1E1C20",
"<  c #231F20",
"1  c #252221",
"2  c #2A2621",
"3  c #2E2921",
"4  c #332D21",
"5  c #373223",
"6  c #3B3423",
"7  c #3E3827",
"8  c #443C1B",
"9  c #453C19",
"0  c #433B25",
"q  c #443C29",
"w  c #463C28",
"e  c #4A421A",
"r  c #494517",
"t  c #544B14",
"y  c #564B1A",
"u  c #5D5315",
"i  c #5A5618",
"p  c #6D5E0F",
"a  c #645C14",
"s  c #695C13",
"d  c #625714",
"f  c #6C600D",
"g  c #7D6E0E",
"h  c #7E700B",
"j  c #6C6111",
"k  c #686419",
"l  c #736510",
"z  c #7B6E10",
"x  c #7D6D1C",
"c  c #756E13",
"v  c #777117",
"b  c #474127",
"n  c #4D4223",
"m  c #4C442A",
"M  c #564A26",
"N  c #50472A",
"B  c #544A2C",
"V  c #594E2C",
"C  c #584A26",
"Z  c #5C522E",
"A  c #5E5431",
"S  c #62562D",
"D  c #66592E",
"F  c #6B5C2B",
"G  c #665A23",
"H  c #655A33",
"J  c #6C5E34",
"K  c #635937",
"L  c #6F602B",
"P  c #73642B",
"I  c #7C6A2D",
"U  c #7D6B22",
"Y  c #7B742B",
"T  c #6D6234",
"R  c #6A613C",
"E  c #726534",
"W  c #766935",
"Q  c #7B6C35",
"!  c #70653A",
"~  c #766B3D",
"^  c #7A6D3B",
"/  c #7D713D",
"(  c #766F46",
")  c #7F7241",
"_  c #83740D",
"`  c #8E7E0E",
"'  c #87780F",
"]  c #827311",
"[  c #8B7E12",
"{  c #8C7B1B",
"}  c #857E1B",
"|  c #917D1A",
" . c #857423",
".. c #84752C",
"X. c #8D7D2F",
"o. c #877A26",
"O. c #917F24",
"+. c #837234",
"@. c #8B7B34",
"#. c #83743C",
"$. c #877B3C",
"%. c #8A7A3C",
"&. c #887430",
"*. c #917F3B",
"=. c #817643",
"-. c #857941",
";. c #8B7D43",
":. c #887D49",
">. c #88800E",
",. c #9C8B0C",
"<. c #96850C",
"1. c #8D8312",
"2. c #948C14",
"3. c #9D8A14",
"4. c #95831D",
"5. c #988718",
"6. c #A28F0C",
"7. c #A5930A",
"8. c #A9970A",
"9. c #AB9A0D",
"0. c #A39A0D",
"q. c #B29E0C",
"w. c #A28F14",
"e. c #A08F1A",
"r. c #A99612",
"t. c #AD9912",
"y. c #A79318",
"u. c #A59711",
"i. c #B39D13",
"p. c #AFA10E",
"a. c #BEAC07",
"s. c #B5A20A",
"d. c #BBA50C",
"f. c #BDA90A",
"g. c #B5A50A",
"h. c #B6A112",
"j. c #BCA712",
"k. c #8F802D",
"l. c #998624",
"z. c #93822C",
"x. c #99872C",
"c. c #998721",
"v. c #8E863C",
"b. c #938233",
"n. c #9D8B33",
"m. c #94833D",
"M. c #9D8B3C",
"N. c #9A873B",
"B. c #9F9037",
"V. c #A18F26",
"C. c #A38E3C",
"Z. c #A5913C",
"A. c #A9963E",
"S. c #AC9A3F",
"D. c #C2AD06",
"F. c #C2AD09",
"G. c #CBB606",
"H. c #CDB906",
"J. c #C5B20A",
"K. c #CAB409",
"L. c #CBB909",
"P. c #C5B006",
"I. c #D3BE06",
"U. c #D3BC0A",
"Y. c #D3C107",
"T. c #DAC405",
"R. c #DEC904",
"E. c #E3CC03",
"W. c #E6D103",
"Q. c #ECD502",
"!. c #EFD800",
"~. c #F5DD00",
"^. c #8E8144",
"/. c #8E8249",
"(. c #938444",
"). c #978845",
"_. c #9B8A43",
"`. c #938549",
"'. c #978A4B",
"]. c #9B8C4A",
"[. c #9F9243",
"{. c #9E9149",
"}. c #9F9050",
"|. c #A59345",
" X c #AD9A46",
".X c #A3934B",
"XX c #A7994C",
"oX c #AC9B4B",
"OX c #B09E4D",
"+X c #B09A43",
"@X c #A59652",
"#X c #AD9D51",
"$X c #A79B55",
"%X c #AFA04F",
"&X c #B9A545",
"*X c #B5A24D",
"=X c #B9A64B",
"-X c #BCA94D",
";X c #B7A445",
":X c #AFA156",
">X c #B4A454",
",X c #B9A653",
"<X c #BDAB54",
"1X c #B4A65D",
"2X c #BBAC5B",
"3X c #BDB064",
"4X c #B6AC67",
"5X c #C1AD4B",
"6X c #C8B34F",
"7X c #C1AE52",
"8X c #C0AF5A",
"9X c #C4B254",
"0X c #C9B554",
"qX c #CDBB54",
"wX c #C4B35B",
"eX c #CDBC5D",
"rX c #CAB75E",
"tX c #D1BE5C",
"yX c #D0BC57",
"uX c #C4B562",
"iX c #CBBC65",
"pX c #CDBE69",
"aX c #D7C34F",
"sX c #DEC84F",
"dX c #D4C257",
"fX c #D5C35D",
"gX c #DAC75C",
"hX c #DECC5C",
"jX c #E1CE5D",
"kX c #EAD65E",
"lX c #CFC06B",
"zX c #D4C364",
"xX c #DCCA63",
"cX c #D2C36A",
"vX c #DCCB69",
"bX c #D8C560",
"nX c #DFD067",
"mX c #DBCD72",
"MX c #D6C871",
"NX c #DED173",
"BX c #E0CF63",
"VX c #E4D264",
"CX c #E3D26A",
"ZX c #E9D769",
"AX c #EEDD6B",
"SX c #E9D866",
"DX c #E3D474",
"FX c #E7D875",
"GX c #EBDD7A",
"HX c #E8DA77",
"JX c #EFE17B",
"KX c #F3E47E",
"LX c #F6E983",
"PX c #FBEE83",
"IX c #F1E481",
"UX c None",
/* pixels */
"UXUXUXUXUXUXUXUXUXUXUXUXUXUXUXUXUXUXUXUXUXUXUXUXUXUXUX~.~.~.~.~.~.~.~.~.~.~.UXUXUXUXUXUXUXUXUXUXUXUXUXUXUXUXUXUXUXUXUXUXUXUXUXUX",
"UXUXUXUXUXUXUXUXUXUXUXUXUXUXUXUXUXUXUXUXUXUX~.~.~.~.~.~.~.~.~.~.~.~.~.~.~.~.~.~.~.~.UXUXUXUXUXUXUXUXUXUXUXUXUXUXUXUXUXUXUXUXUXUX",
"UXUXUXUXUXUXUXUXUXUXUXUXUXUXUXUXUXUXUXUX~.~.~.~.~.~.~.~.~.~.~.~.~.~.~.~.~.~.~.~.~.~.~.~.UXUXUXUXUXUXUXUXUXUXUXUXUXUXUXUXUXUXUXUX",
"UXUXUXUXUXUXUXUXUXUXUXUXUXUXUXUXUXUX~.~.~.~.~.~.~.~.~.~.~.~.~.~.~.~.~.~.~.~.~.~.~.~.~.~.~.~.~.UXUXUXUXUXUXUXUXUXUXUXUXUXUXUXUXUX",
"UXUXUXUXUXUXUXUXUXUXUXUXUXUXUXUX~.~.~.~.~.~.~.~.~.~.~.~.~.~.~.~.~.~.~.~.~.~.~.~.~.~.~.~.~.~.~.~.UXUXUXUXUXUXUXUXUXUXUXUXUXUXUXUX",
"UXUXUXUXUXUXUXUXUXUXUXUXUXUX~.~.~.~.~.~.~.~.~.~.~.~.~.~.~.~.~.~.~.~.~.~.~.~.~.~.~.~.~.~.~.~.~.~.~.~.UXUXUXUXUXUXUXUXUXUXUXUXUXUX",
"UXUXUXUXUXUXUXUXUXUXUXUXUX~.~.Q.y.;.+.O.F.T.Q.Q.~.~.~.~.~.~.~.~.~.~.~.~.~.~.~.~.~.~.~.~.~.~.~.~.~.~.~.UXUXUXUXUXUXUXUXUXUXUXUXUX",
"UXUXUXUXUXUXUXUXUXUXUX~.~.~.~.R.&.:XtXZXtX,X X XC.q.!.~.~.~.~.~.~.~.~.~.~.~.~.~.~.~.~.~.~.~.~.~.~.~.~.~.~.UXUXUXUXUXUXUXUXUXUXUX",
"UXUXUXUXUXUXUXUXUXUX~.~.~.~.~.~.O.*.e.|.8X*XtX}.;.wXn.F.!.~.~.Q.~.~.~.~.~.~.~.~.~.~.~.~.~.~.~.~.~.~.~.~.~.~.UXUXUXUXUXUXUXUXUXUX",
"UXUXUXUXUXUXUXUXUX~.~.~.~.~.~.~.j.i.~.E.y._.;.>XtXCXAXrX XA.|.+.w 8 y ` G.~.~.~.~.~.~.~.~.~.~.~.~.~.~.~.~.~.~.UXUXUXUXUXUXUXUXUX",
"UXUXUXUXUXUXUXUX~.~.~.~.~.~.~.~.!.E.~.Q.!.K.*.pXLXKXDX).DXPXPXLX1Xw < < 2 8 ' E.~.~.~.~.~.~.~.~.~.~.~.~.~.~.~.~.UXUXUXUXUXUXUXUX",
"UXUXUXUXUXUXUX~.~.~.~.~.~.~.~.~.~.U.V.#.L ;..XvXLXHXuXFXGXDXpXIXKXtX_.T w 2 < : ` E.~.~.~.~.~.~.~.~.~.~.~.~.~.~.~.UXUXUXUXUXUXUX",
"UXUXUXUXUXUXUX~.~.~.~.~.~.~.~.~.U.%.@X4XMXpXuXuXpXuXX.i.F.h.i.i.V.P OXBXBX7XJ w w F F.~.~.~.~.~.~.~.~.~.~.~.~.~.~.UXUXUXUXUXUXUX",
"UXUXUXUXUXUX~.~.~.~.~.~.~.~.~.~.E.i.i.F.K.T.Q.Q.E.E.~.~.~.~.~.~.~.Q.q.x  XCXZXjX5X_.8 6.!.~.~.~.~.~.~.~.~.~.~.~.~.~.UXUXUXUXUXUX",
"UXUXUXUXUX~.~.~.~.~.~.~.~.~.~.~.~.~.~.~.~.~.~.~.~.~.~.~.~.~.~.~.~.~.~.~.i.C.rXtX.Xw C.w 8.~.~.~.~.~.~.~.~.~.~.~.~.~.~.UXUXUXUXUX",
"UXUXUXUXUX~.~.~.~.~.~.~.~.~.~.~.~.~.~.~.~.~.~.~.~.~.~.~.~.~.~.~.~.~.~.~.~.U. .8X#X# 0 ;.C q.~.~.~.~.~.~.~.~.~.~.~.~.~.UXUXUXUXUX",
"UXUXUXUX~.~.~.~.~.~.~.~.~.~.~.~.~.~.~.~.~.~.~.~.~.~.~.~.~.~.~.~.~.~.~.~.~.~.R.O.rX-.0 w J 9 K.~.~.~.~.~.~.~.~.~.~.~.~.~.UXUXUXUX",
"UXUXUX~.~.~.~.~.~.~.~.~.~.~.~.~.~.~.~.~.~.~.~.~.~.~.~.~.~.~.~.~.~.~.~.~.~.~.~.K.*.CXvX#X].'.O.E.~.~.~.~.~.~.~.~.~.~.~.~.UXUXUXUX",
"UXUXUX~.~.~.~.~.~.~.~.~.~.~.~.~.~.~.~.~.~.~.~.~.~.~.~.~.~.~.~.~.~.~.~.~.~.~.~.Q.| ;._.%.=X+XL 8.~.~.~.~.~.~.~.~.~.~.~.~.~.UXUXUX",
"UXUXUX~.~.~.~.~.~.~.~.~.~.~.~.~.~.~.~.~.~.~.~.~.~.~.~.~.~.~.~.~.~.~.~.~.~.~.~.~.d.|.bXtXV V +.p ~.~.~.~.~.~.~.~.~.~.~.~.~.UXUXUX",
"UXUX~.~.~.~.~.~.~.~.~.~.~.~.~.~.~.~.~.~.~.~.~.~.~.Q.T.f.7.1.g l ] ` q.T.Q.~.~.~.T.X.bX#.@ 5 ;.9 I.~.~.~.~.~.~.~.~.~.~.~.~.~.UXUX",
"UXUX~.~.~.~.~.~.~.~.~.~.~.~.~.~.~.~.~.~.~.~.~.L.z y ^ & # 3 7 6 0 % @ 9 P 9 s ` d. .+Xw @ # '.w 6.~.~.~.~.~.~.~.~.~.~.~.~.~.UXUX",
"UX~.~.~.~.~.~.~.~.~.~.~.~.~.~.~.~.~.~.~.~.s.r @ O 4 }.;.- ( ^.Q L F C +.-X.X;.K 3 4 7XbXQ % +.0 g ~.~.~.~.~.~.~.~.~.~.~.~.~.~.UX",
"UX~.~.~.~.~.~.~.~.~.~.~.~.~.~.~.~.~.~.W.[ = O $ J ).^ wX;.6 $ X X @ C +X8Xw 4 V w 3  X;.rX#X^ 0 l !.~.~.~.~.~.~.~.~.~.~.~.~.~.UX",
"UX~.~.~.~.~.~.~.~.~.~.~.~.~.~.~.~.~.!.3.OXOX7 -.=.2 q cXHXcX>X_.*.C.7X.X8X*X2 O O 6 iXiXW B F +.] !.~.~.~.~.~.~.~.~.~.~.~.~.~.UX",
"UX~.~.~.~.~.~.~.~.~.~.~.~.~.~.~.~.~.G.C.gX0X.X>X^ S $ G e.j.J.P.F.d.q.| X.;.3 O < K uXw X #.Z . @ s I.~.~.~.~.~.~.~.~.~.~.~.~.UX",
"~.~.~.~.~.~.~.~.~.~.~.~.~.~.~.~.~.~.F.A.aXC.D E oX,XU E.~.~.~.~.~.~.~.~.~.E.r.9 4 #X#.@ B ;.@       9 D.~.~.~.~.~.~.~.~.~.~.~.UX",
"~.~.~.~.~.~.~.~.~.~.~.~.~.~.~.~.~.~.H.|.SXXX4 #.0 2 8 F.!.~.~.~.~.~.~.~.~.~.E.| +.|.S w ).5         @ 9 U.~.~.~.~.~.~.~.~.~.~.~.",
"~.~.~.~.~.~.~.~.~.~.~.~.~.~.~.~.~.~.Q.l.0XJ < m `.7 1 m k.t.L.R.W.Q.E.U.q.p : S ].oX#.|.w         + A OX| Q.~.~.~.~.~.~.~.~.~.~.",
"~.~.~.~.~.~.~.~.~.~.~.~.~.~.~.~.~.~.~.H.G 2 4 5 7 `.! :.HX4Xm 1 S @.N.OX;.# . # q m >XyXS @ 6 5 # @ ;.xXN.P.~.~.~.~.~.~.~.~.~.~.",
"~.~.~.~.~.~.~.~.~.~.~.~.~.~.~.~.~.~.H.z = # =.zX'.R }.MX3XA 3 < # F >XpX=.N #.;.~ V rX1XE L <X7XXX7X7XbXOX6.~.~.~.~.~.~.~.~.~.~.",
"~.~.~.~.~.~.~.~.~.~.~.~.~.~.~.~.E.z % @ # 4 H ~ 2XDXIXMX( ( /.'.*.;.T -.].K 0 # o X 4 D 0X*X*.tX*XF - _._.' ~.~.~.~.~.~.~.~.~.~.",
"~.~.~.~.~.~.~.~.~.~.~.~.~.~.~.I.O.W $ - / {.A 2 q ^.}.3XK 2 , O @ 6 ).MXMX:.2 @ 3 3 O O & Z - Z & % P * @ p Q.~.~.~.~.~.~.~.~.~.",
"~.~.~.~.~.~.~.~.~.~.~.~.~.~.E.z.dX].C .XA $ $ 3 /.FXHXcX$X~ N 6 0 ^ (.;.;.-.;.1X'.^..X/ 5 +   . . 7 #.X   _ ~.~.~.~.~.~.~.~.~.~.",
"~.~.~.~.~.~.~.~.~.~.~.~.~.~.r.*XSX X.XS - % 6 `.3X%X[.B.B.n.b.X...&.(.#XpXDXDXNX! O # m Z X . + X V ! * 0 8.~.~.~.~.~.~.~.~.~.~.",
"~.~.~.~.~.~.~.~.~.~.~.~.~.E.l.gX|.eXZX9X-XiX,Xx.J.W.!.~.~.~.~.~.Q.Q.E.I.d.e.X.(.B + X o X Z ^.V $ =.m A @.I.~.~.~.~.~.~.~.~.~.~.",
"~.~.~.~.~.~.~.~.~.~.~.~.~.E.n.jX X*XoXoX<XfXz.E.~.~.~.~.~.~.~.~.~.~.~.~.~.~.~.Q.F.s * X m wXNXMX@X`.0 ;.{ Q.~.~.~.~.~.~.~.~.~.~.",
"UX~.~.~.~.~.~.~.~.~.~.~.~.Q.x m % B ;.2 7 (. .Q.~.~.~.~.~.~.~.~.~.~.~.~.~.~.~.~.~.~.q.n XXtXpXpXpX}.(.V * 8.~.~.~.~.~.~.~.~.~.~.",
"UX~.~.~.~.~.~.~.~.~.~.~.~.~.,.% O < #.Z # # 6 a s d u u d a j g <.9.G.E.!.~.~.~.Q.r.@.N @ # w 0 F 0X+.- @ 9 P.~.~.~.~.~.~.~.~.UX",
"UX~.~.~.~.~.~.~.~.~.~.~.~.~.L.9 O X 3 v.N # #.|.b $ $ B /.].5 o . . . @ = t ' w. .<XvXB # N :.6 '.'.w :.w 7XO.E.~.~.~.~.~.~.~.UX",
"UX~.~.~.~.~.~.~.~.~.~.~.R._ = X O o o 3 #.B S xXCX2X).$.;.@X@.* X X X $ 5 Z (.wXnXHXzXB A '.6 6 =.6 3 =.;.zXpXV.~.~.~.~.~.~.~.UX",
"UX~.~.~.~.~.~.~.~.~.~.q.9 X % T E 2 * B Z 6 N 0XfXvXnX/ 5 {.5X;X;X;X-XgXxX#X].#XwXiXuX#X#X;.-.w '.mXmXuX=.:XmX#XF.~.~.~.~.~.~.UX",
"UXUX~.~.~.~.~.~.~.~.,.& O m .XH $ H  X+.-XjXhXgX{.Z 4 # X % &.qX=X7XhX9XZ X X 4 S 7 H xXCXwX#.^ 1XHXpXK ~ w ( 1X| !.~.~.~.~.UXUX",
"UXUX~.~.~.~.~.~.~.q.> # H ].6 X # ;.oX{ 3.o.<X%Xw ~ XX].~ B : P N.C.v.n B / ].`.B Z iXwX;.).xX8X`.uXN # ;.B X $ e E.~.~.~.~.UXUX",
"UXUXUX~.~.~.~.~.E.O.qX|.-X+.W L V F 9.~.~.~.F.x - O # 2 0 B C e -XVX7X;.D 6 $ O 4 / Z $ 0 8XzX).B 4 @ # ;.B @ O : T.~.~.~.UXUXUX",
"UXUXUX~.~.~.~.~.H.M.kXkX<X-X<X(.wXl.Q.~.~.~.~.~.W.f.] t - : &.Z.7XtX0X*XV $ : s 6.T.I._ = @ $ # % @ @ # ;.B X 4 8 E.~.~.~.UXUXUX",
"UXUXUXUX~.~.~.~.s.;X9XoXS 5 (.gX0Xw.~.~.~.~.~.~.~.~.~.~.~.E.I.F.f.f.d.F.I.E.Q.~.~.~.~.~.Q.7.y w <X~ # % (.0 4 oX*.E.~.~.UXUXUXUX",
"UXUXUXUX~.~.~.~.9.-X/ #.T O % W %.x Q.~.~.~.~.~.~.~.~.~.~.~.~.~.~.~.~.~.~.~.~.~.~.~.~.~.~.~.q.XXCXvX! w (.0 (.wX .Q.~.~.UXUXUXUX",
"UXUXUXUXUX~.~.~.s.#.5 B ).& O , O & 3.~.~.~.~.~.~.~.~.~.~.~.~.~.~.~.~.~.~.~.~.~.~.~.~.~.!.t.B.wX#.tXtX2X2XwXgX|.<.~.~.UXUXUXUXUX",
"UXUXUXUXUX~.~.~.D.- , 1 =.~ < 2 N 7 W e.W.~.~.~.~.~.~.~.~.~.~.~.~.~.~.~.~.~.~.~.~.~.~.T.z.XXeXfXpX@XS ;.CXxXeXY T.~.~.UXUXUXUXUX",
"UXUXUXUXUXUX~.~.W.i O , 1 ^.~ 4 ,XnXdX%Xk.p.W.!.~.~.~.~.~.~.~.~.~.~.~.~.~.~.~.~.!.L.5.N._.6 $ $ % N V ) CXnXm.9.~.~.UXUXUXUXUXUX",
"UXUXUXUXUXUXUX~.~.J.; O , 2 B 3 $.hXeX9XZXfXv.v 0.Y.Q.~.~.~.~.~.~.~.~.~.!.W.J.2.Y [.dXjXW # , , H ).Z wXCX_.9.~.~.UXUXUXUXUXUXUX",
"UXUXUXUXUXUXUX~.~.~.g.; , 4 ! {.=X-X$.D R ~ ) 5 2 -.v.o.Y 1.1.[ 1.1.c v Y $.%XfXCXVXVXxXZ # 5 v.#.2 b wX_.9.~.~.~.UXUXUXUXUXUXUX",
"UXUXUXUXUXUXUXUX~.~.~.L.t / SXAXhX=X(..XT ; , O O R xX*X-XnX5X0XdX<Xb S dXVXVXxXW XXdX^ 5 T (.N # O 6 W p.~.~.~.UXUXUXUXUXUXUXUX",
"UXUXUXUXUXUXUXUXUX~.~.~.Q.0./ qXsXaXA * N $.^.T b 3 H wXdXjX=X5X-XT $ X q E ].>X<X=XT $.).V $ O O % k Y.~.~.~.UXUXUXUXUXUXUXUXUX",
"UXUXUXUXUXUXUXUXUXUX~.~.~.~.W.2.o.=Xv., o o 1 5 T (.-.Z <XhXn.N % # O , % - b B - M.hX(.6 O O % i a.!.~.~.~.UXUXUXUXUXUXUXUXUXUX",
"UXUXUXUXUXUXUXUXUXUXUX~.~.~.~.~.Q.p.i $ O O + , o 5 ^.>XtX+XZ.m.N.N._.).(.$.T b * @.hXvXXXb v H.~.~.~.~.~.UXUXUXUXUXUXUXUXUXUXUX",
"UXUXUXUXUXUXUXUXUXUXUXUXUX~.~.~.~.~.~.R.0.a ; O , % R ) |.=X&XP ; + + O o + + + O Z ..4.g.W.~.~.~.~.~.UXUXUXUXUXUXUXUXUXUXUXUXUX",
"UXUXUXUXUXUXUXUXUXUXUXUXUXUX~.~.~.~.~.~.~.~.Q.Y.2.k 8 ; 5 $.|.B.W $ @ % ; r i >.s.T.~.~.~.~.~.~.~.~.UXUXUXUXUXUXUXUXUXUXUXUXUXUX",
"UXUXUXUXUXUXUXUXUXUXUXUXUXUXUXUX~.~.~.~.~.~.~.~.~.~.~.~.Q.E.R.R.T.R.W.!.~.~.~.~.~.~.~.~.~.~.~.~.UXUXUXUXUXUXUXUXUXUXUXUXUXUXUXUX",
"UXUXUXUXUXUXUXUXUXUXUXUXUXUXUXUXUX~.~.~.~.~.~.~.~.~.~.~.~.~.~.~.~.~.~.~.~.~.~.~.~.~.~.~.~.~.UXUXUXUXUXUXUXUXUXUXUXUXUXUXUXUXUXUX",
"UXUXUXUXUXUXUXUXUXUXUXUXUXUXUXUXUXUXUXUX~.~.~.~.~.~.~.~.~.~.~.~.~.~.~.~.~.~.~.~.~.~.~.~.UXUXUXUXUXUXUXUXUXUXUXUXUXUXUXUXUXUXUXUX",
"UXUXUXUXUXUXUXUXUXUXUXUXUXUXUXUXUXUXUXUXUXUX~.~.~.~.~.~.~.~.~.~.~.~.~.~.~.~.~.~.~.~.UXUXUXUXUXUXUXUXUXUXUXUXUXUXUXUXUXUXUXUXUXUX",
"UXUXUXUXUXUXUXUXUXUXUXUXUXUXUXUXUXUXUXUXUXUXUXUXUXUX~.~.~.~.~.~.~.~.~.~.~.UXUXUXUXUXUXUXUXUXUXUXUXUXUXUXUXUXUXUXUXUXUXUXUXUXUXUX"
};
