/* XPM */
static char *_____________[] = {
/* columns rows colors chars-per-pixel */
"32 32 168 2",
"   c #141414",
".  c #1E1E1E",
"X  c #201F19",
"o  c #242314",
"O  c #2C2A19",
"+  c #36331A",
"@  c #252524",
"#  c #282721",
"$  c #2E2D24",
"%  c #2C2C2B",
"&  c #323124",
"*  c #38372C",
"=  c #343433",
"-  c #3B3A33",
";  c #3D3D3C",
":  c #413D1A",
">  c #423F22",
",  c #4A4410",
"<  c #4F4912",
"1  c #47431C",
"2  c #4E491C",
"3  c #534C10",
"4  c #524D1C",
"5  c #5C5514",
"6  c #6F650F",
"7  c #6B6312",
"8  c #6A621C",
"9  c #746A12",
"0  c #796F13",
"q  c #7C721F",
"w  c #444120",
"e  c #4D4922",
"r  c #46442F",
"t  c #5D5827",
"y  c #434237",
"u  c #43423E",
"i  c #4C4A3D",
"p  c #5E5A37",
"a  c #53513E",
"s  c #5A5638",
"d  c #716922",
"f  c #7A7120",
"g  c #746D30",
"h  c #767038",
"j  c #454544",
"k  c #4B4A45",
"l  c #4C4C4C",
"z  c #545345",
"x  c #555454",
"c  c #5D5D55",
"v  c #5C5C5C",
"b  c #706D4D",
"n  c #76714B",
"m  c #636155",
"M  c #6A6855",
"N  c #60605E",
"B  c #6F6D5A",
"V  c #73705B",
"C  c #646363",
"Z  c #6B6B6B",
"A  c #767464",
"S  c #757575",
"D  c #7B7B7A",
"F  c #867C22",
"G  c #867E3A",
"H  c #837D4C",
"J  c #847F52",
"K  c #827F5F",
"L  c #817F73",
"P  c #8E810A",
"I  c #96880D",
"U  c #9C8E0C",
"Y  c #8E8318",
"T  c #928613",
"R  c #9A8D16",
"E  c #91851A",
"W  c #9F9216",
"Q  c #9F9219",
"!  c #A49509",
"~  c #AC9C0B",
"^  c #AA9B11",
"/  c #A3951B",
"(  c #BAA906",
")  c #B5A409",
"_  c #BCAA09",
"`  c #B0A113",
"'  c #BCAC13",
"]  c #B0A11F",
"[  c #BFAF19",
"{  c #978C24",
"}  c #988C20",
"|  c #948929",
" . c #9C912D",
".. c #8E863E",
"X. c #988D30",
"o. c #9C9237",
"O. c #9A913D",
"+. c #A09426",
"@. c #A69924",
"#. c #AC9E20",
"$. c #A79B2C",
"%. c #AA9E2C",
"&. c #A39832",
"*. c #AA9F34",
"=. c #A0963A",
"-. c #AFA227",
";. c #B5A623",
":. c #B9AB22",
">. c #B0A32B",
",. c #BAAC2D",
"<. c #BFB025",
"1. c #AEA235",
"2. c #B9AC32",
"3. c #C1AF0D",
"4. c #C4B207",
"5. c #C9B605",
"6. c #CEBB06",
"7. c #C7B40E",
"8. c #CAB709",
"9. c #D2BE0B",
"0. c #C4B31B",
"q. c #D6C206",
"w. c #DBC604",
"e. c #DEC906",
"r. c #D3C00C",
"t. c #D9C40A",
"y. c #DEC909",
"u. c #D5C210",
"i. c #E2CC05",
"p. c #E0CB09",
"a. c #E7D104",
"s. c #EBD403",
"d. c #EFD802",
"f. c #F5DD00",
"g. c #8C8545",
"h. c #8A844E",
"j. c #90894D",
"k. c #99914A",
"l. c #868051",
"z. c #8B8554",
"x. c #86825D",
"c. c #958F5B",
"v. c #97915A",
"b. c #A49B42",
"n. c #A1994A",
"m. c #A9A04E",
"M. c #B0A542",
"N. c #B2A843",
"B. c #878463",
"V. c #898665",
"C. c #85836E",
"Z. c #88856B",
"A. c #938E61",
"S. c #9C9764",
"D. c #94916D",
"F. c #858374",
"G. c #8B8975",
"H. c #86857C",
"J. c #8C8A7B",
"K. c #838383",
"L. c #898987",
"P. c #8B8B8A",
"I. c #919087",
"U. c #939393",
"Y. c #A4A4A3",
"T. c #A8A8A7",
"R. c #AEAEAE",
"E. c None",
/* pixels */
"E.E.E.E.E.E.E.E.E.E.E.E.f.f.f.f.f.f.f.f.E.E.E.E.E.E.E.E.E.E.E.E.",
"E.E.E.E.E.E.E.E.E.f.f.f.f.f.f.f.f.f.f.f.f.f.f.E.E.E.E.E.E.E.E.E.",
"E.E.E.E.E.E.E.f.f.f.f.f.f.f.f.f.f.f.f.f.f.f.f.f.f.E.E.E.E.E.E.E.",
"E.E.E.E.E.E.f.i.h.Z.n.1.0.f.f.f.f.f.f.f.f.f.f.f.f.f.E.E.E.E.E.E.",
"E.E.E.E.E.f.f.s.+.>.B.D L.S.2.>.R ) i.f.f.f.f.f.f.f.f.E.E.E.E.E.",
"E.E.E.E.f.f.f.f.i.] X.J.R.U.Y.T.D ; & 7 6.f.f.f.f.f.f.f.E.E.E.E.",
"E.E.E.f.f.f.f.f.-.j.m.N.M.0.u.u.;.z.L.S m / f.f.f.f.f.f.f.E.E.E.",
"E.E.f.f.f.f.f.f.f.f.f.f.f.f.f.f.f.f.:.F.x k W f.f.f.f.f.f.f.E.E.",
"E.E.f.f.f.f.f.f.f.f.f.f.f.f.f.f.f.f.f.<.F.N z ' f.f.f.f.f.f.E.E.",
"E.f.f.f.f.f.f.f.f.f.f.f.f.f.f.f.f.f.f.a.g.D N g d.f.f.f.f.f.f.E.",
"E.f.f.f.f.f.f.f.f.f.f.a.^ q 4 e 4 8 Q _  .N @ a 4.f.f.f.f.f.f.E.",
"E.f.f.f.f.f.f.f.f.d.T O ; Z j = % x C j - S C u ~ f.f.f.f.f.f.E.",
"f.f.f.f.f.f.f.f.f.>.D N j z c...G l.A @ = Z j ; 0 a.f.f.f.f.f.f.",
"f.f.f.f.f.f.f.f.f.b.K.l l Y d.f.f.f.a.T v j ;     5 i.f.f.f.f.f.",
"f.f.f.f.f.f.f.f.f.0.z % k j x.q { o.t $ l Z = . . C %.f.f.f.f.f.",
"f.f.f.f.f.f.f.f.8.5 O N K.U.Z j j Z v j = v C D Z Z g.d.f.f.f.f.",
"f.f.f.f.f.f.f.0.B j j % Z K.l @ ; S S j l ; @ @ @ = < i.f.f.f.f.",
"f.f.f.f.f.f.a.v.P.D x M b.2.<.;.@.X.c.J.= . % % = ; F d.f.f.f.f.",
"f.f.f.f.f.f.e.n x v C >.f.f.f.f.f.f.f.d._ 4 Z U.S l Y f.f.f.f.f.",
"f.f.f.f.f.f.d.9 . j % i 1 * s 1 3 6 U _ o.c % ; C j i [ f.f.f.f.",
"E.f.f.f.f.w.7 & @ @ ; Z U.Z v v j x C S U.D v ; N C D D.p.f.f.E.",
"E.f.f.f.q.2 ; ; ; B K K.v j = x D Z ; j j D K.S K.x j ; ` f.f.E.",
"E.f.f.f.1.P.D Z b r.f.7.9 : * x L.S - + d 8 ; l @ . j . I f.f.E.",
"E.E.f.f.k.Z ; v H i.f.f.f.f.i.w.t.t.i.f.f.f.r.h D ; k v :.f.E.E.",
"E.E.f.f.f % l . & { d.f.f.f.f.f.f.f.f.f.f.a.&.H.K.S U.Z.q.f.E.E.",
"E.E.E.f.( o % ; D K.A.;.9.d.f.f.f.f.a.9.%.V.j . j C I.-.f.E.E.E.",
"E.E.E.E.f.! y H.L.C j % u C.x.J n p F.U.L.K.; j % z %.d.E.E.E.E.",
"E.E.E.E.E.f.t.O.H.; % ; j v U.S j o = x C Z ; X 3 4.f.E.E.E.E.E.",
"E.E.E.E.E.E.f.f.e.I , o @ C D C ; = = @ ; B.| 5.f.f.E.E.E.E.E.E.",
"E.E.E.E.E.E.E.f.f.f.f.a.6.~ / $.Y T ! _ w.f.f.f.f.E.E.E.E.E.E.E.",
"E.E.E.E.E.E.E.E.E.f.f.f.f.f.f.f.f.f.f.f.f.f.f.E.E.E.E.E.E.E.E.E.",
"E.E.E.E.E.E.E.E.E.E.E.E.f.f.f.f.f.f.f.f.E.E.E.E.E.E.E.E.E.E.E.E."
};
